{"asset":{"version":"2.0","generator":"Blockbench 3.7.4 glTF exporter"},"scenes":[{"nodes":[27],"name":"blockbench_export"}],"scene":0,"nodes":[{"translation":[0,-24,0],"name":"c7045564-0822-3feb-6496-9959299f93a4","mesh":0},{"translation":[0,-24,0],"name":"8647b57c-302f-f20e-441e-0ccc8b929609","mesh":1},{"translation":[0,-24,0],"name":"52178e69-d2f6-0876-eb79-a9ceaf264390","mesh":2},{"translation":[0,-24,0],"name":"c1abe090-3739-94c5-22da-57b0d7e58fc7","mesh":3},{"translation":[-3.5,-31,-0.5],"name":"c1c0dad4-7948-64a9-5d02-47baccc7827c","mesh":4},{"translation":[-3.5,-31,-0.5],"name":"84db2041-f82e-b310-e688-7f16f502667f","mesh":5},{"translation":[-3.5,-31,-0.5],"name":"e6241e84-41d1-8c7b-6b92-be6704cb90a1","mesh":6},{"translation":[-3.5,-31,-0.5],"name":"cfd6e38e-a1e3-8a82-8202-21633ffa39a4","mesh":7},{"rotation":[0,0.06540312923014306,0,0.9978589232386035],"translation":[3.5,7,0.5],"name":"rightEar","children":[4,5,6,7]},{"translation":[3.5,-31,-0.5],"name":"5d6e749a-204e-46d8-6c11-2c22d632defe","mesh":8},{"translation":[3.5,-31,-0.5],"name":"9448909f-83c1-139c-87ae-c71e6d00dc9c","mesh":9},{"translation":[3.5,-31,-0.5],"name":"e137f035-f5a0-5af4-ce1f-8b97337763bd","mesh":10},{"translation":[3.5,-31,-0.5],"name":"5489d329-5e53-c5b0-3535-91d4f5592ea2","mesh":11},{"rotation":[0,-0.06540312923014306,0,0.9978589232386035],"translation":[-3.5,7,0.5],"name":"leftEar","children":[9,10,11,12]},{"rotation":[0.06540312923014306,0,0,0.9978589232386035],"name":"head","children":[2,3,8,13]},{"translation":[-5,-22,0],"name":"d4257bff-25aa-eae4-9631-7fddabb02984","mesh":12},{"translation":[-5,-22,0],"name":"f60451a1-9053-f538-c7d9-fa22af89a2e6","mesh":13},{"rotation":[0,0,0.02181488503456112,0.9997620270799091],"translation":[5,-2,0],"name":"leftArm","children":[15,16]},{"translation":[5,-22,0],"name":"1b7a2e28-641d-75ce-9089-ef39d629bc01","mesh":14},{"translation":[5,-22,0],"name":"abd74277-048b-c4d0-ee96-5ca504763e5e","mesh":15},{"rotation":[0,0,-0.02181488503456112,0.9997620270799091],"translation":[-5,-2,0],"name":"rightArm","children":[18,19]},{"translation":[-1.9,-12,0],"name":"ee2310c6-e459-0cbc-5bab-0536f45e9ed0","mesh":16},{"translation":[-1.9,-12,0],"name":"95508acf-7b8f-a7c9-06bf-3fb661b3cdb0","mesh":17},{"rotation":[0.02181488503456112,0,0,0.9997620270799091],"translation":[1.9,-12,0],"name":"leftLeg","children":[21,22]},{"translation":[1.9,-12,0],"name":"bb339e36-d70b-bf8d-c940-58d9f053d508","mesh":18},{"translation":[1.9,-12,0],"name":"e52e8744-0a12-5e52-e5d9-b2b17dc33837","mesh":19},{"rotation":[-0.02181488503456112,0,0,0.9997620270799091],"translation":[-1.9,-12,0],"name":"rightLeg","children":[24,25]},{"translation":[0,24,0],"name":"body","children":[0,1,14,17,20,23,26]}],"bufferViews":[{"buffer":0,"byteOffset":0,"byteLength":432,"target":34962,"byteStride":12},{"buffer":0,"byteOffset":432,"byteLength":432,"target":34962,"byteStride":12},{"buffer":0,"byteOffset":864,"byteLength":288,"target":34962,"byteStride":8},{"buffer":0,"byteOffset":1152,"byteLength":432,"target":34962,"byteStride":12},{"buffer":0,"byteOffset":1584,"byteLength":432,"target":34962,"byteStride":12},{"buffer":0,"byteOffset":2016,"byteLength":288,"target":34962,"byteStride":8},{"buffer":0,"byteOffset":2304,"byteLength":432,"target":34962,"byteStride":12},{"buffer":0,"byteOffset":2736,"byteLength":432,"target":34962,"byteStride":12},{"buffer":0,"byteOffset":3168,"byteLength":288,"target":34962,"byteStride":8},{"buffer":0,"byteOffset":3456,"byteLength":432,"target":34962,"byteStride":12},{"buffer":0,"byteOffset":3888,"byteLength":432,"target":34962,"byteStride":12},{"buffer":0,"byteOffset":4320,"byteLength":288,"target":34962,"byteStride":8},{"buffer":0,"byteOffset":4608,"byteLength":432,"target":34962,"byteStride":12},{"buffer":0,"byteOffset":5040,"byteLength":432,"target":34962,"byteStride":12},{"buffer":0,"byteOffset":5472,"byteLength":288,"target":34962,"byteStride":8},{"buffer":0,"byteOffset":5760,"byteLength":432,"target":34962,"byteStride":12},{"buffer":0,"byteOffset":6192,"byteLength":432,"target":34962,"byteStride":12},{"buffer":0,"byteOffset":6624,"byteLength":288,"target":34962,"byteStride":8},{"buffer":0,"byteOffset":6912,"byteLength":432,"target":34962,"byteStride":12},{"buffer":0,"byteOffset":7344,"byteLength":432,"target":34962,"byteStride":12},{"buffer":0,"byteOffset":7776,"byteLength":288,"target":34962,"byteStride":8},{"buffer":0,"byteOffset":8064,"byteLength":432,"target":34962,"byteStride":12},{"buffer":0,"byteOffset":8496,"byteLength":432,"target":34962,"byteStride":12},{"buffer":0,"byteOffset":8928,"byteLength":288,"target":34962,"byteStride":8},{"buffer":0,"byteOffset":9216,"byteLength":432,"target":34962,"byteStride":12},{"buffer":0,"byteOffset":9648,"byteLength":432,"target":34962,"byteStride":12},{"buffer":0,"byteOffset":10080,"byteLength":288,"target":34962,"byteStride":8},{"buffer":0,"byteOffset":10368,"byteLength":432,"target":34962,"byteStride":12},{"buffer":0,"byteOffset":10800,"byteLength":432,"target":34962,"byteStride":12},{"buffer":0,"byteOffset":11232,"byteLength":288,"target":34962,"byteStride":8},{"buffer":0,"byteOffset":11520,"byteLength":432,"target":34962,"byteStride":12},{"buffer":0,"byteOffset":11952,"byteLength":432,"target":34962,"byteStride":12},{"buffer":0,"byteOffset":12384,"byteLength":288,"target":34962,"byteStride":8},{"buffer":0,"byteOffset":12672,"byteLength":432,"target":34962,"byteStride":12},{"buffer":0,"byteOffset":13104,"byteLength":432,"target":34962,"byteStride":12},{"buffer":0,"byteOffset":13536,"byteLength":288,"target":34962,"byteStride":8},{"buffer":0,"byteOffset":13824,"byteLength":432,"target":34962,"byteStride":12},{"buffer":0,"byteOffset":14256,"byteLength":432,"target":34962,"byteStride":12},{"buffer":0,"byteOffset":14688,"byteLength":288,"target":34962,"byteStride":8},{"buffer":0,"byteOffset":14976,"byteLength":432,"target":34962,"byteStride":12},{"buffer":0,"byteOffset":15408,"byteLength":432,"target":34962,"byteStride":12},{"buffer":0,"byteOffset":15840,"byteLength":288,"target":34962,"byteStride":8},{"buffer":0,"byteOffset":16128,"byteLength":432,"target":34962,"byteStride":12},{"buffer":0,"byteOffset":16560,"byteLength":432,"target":34962,"byteStride":12},{"buffer":0,"byteOffset":16992,"byteLength":288,"target":34962,"byteStride":8},{"buffer":0,"byteOffset":17280,"byteLength":432,"target":34962,"byteStride":12},{"buffer":0,"byteOffset":17712,"byteLength":432,"target":34962,"byteStride":12},{"buffer":0,"byteOffset":18144,"byteLength":288,"target":34962,"byteStride":8},{"buffer":0,"byteOffset":18432,"byteLength":432,"target":34962,"byteStride":12},{"buffer":0,"byteOffset":18864,"byteLength":432,"target":34962,"byteStride":12},{"buffer":0,"byteOffset":19296,"byteLength":288,"target":34962,"byteStride":8},{"buffer":0,"byteOffset":19584,"byteLength":432,"target":34962,"byteStride":12},{"buffer":0,"byteOffset":20016,"byteLength":432,"target":34962,"byteStride":12},{"buffer":0,"byteOffset":20448,"byteLength":288,"target":34962,"byteStride":8},{"buffer":0,"byteOffset":20736,"byteLength":432,"target":34962,"byteStride":12},{"buffer":0,"byteOffset":21168,"byteLength":432,"target":34962,"byteStride":12},{"buffer":0,"byteOffset":21600,"byteLength":288,"target":34962,"byteStride":8},{"buffer":0,"byteOffset":21888,"byteLength":432,"target":34962,"byteStride":12},{"buffer":0,"byteOffset":22320,"byteLength":432,"target":34962,"byteStride":12},{"buffer":0,"byteOffset":22752,"byteLength":288,"target":34962,"byteStride":8},{"buffer":0,"byteOffset":23040,"byteLength":248},{"buffer":0,"byteOffset":23288,"byteLength":992},{"buffer":0,"byteOffset":24280,"byteLength":72},{"buffer":0,"byteOffset":24352,"byteLength":288},{"buffer":0,"byteOffset":24640,"byteLength":208},{"buffer":0,"byteOffset":24848,"byteLength":832}],"buffers":[{"byteLength":25680,"uri":"data:application/octet-stream;base64,"}],"accessors":[{"bufferView":0,"componentType":5126,"count":36,"max":[4,24,2],"min":[-4,12,-2],"type":"VEC3"},{"bufferView":1,"componentType":5126,"count":36,"max":[1,1,1],"min":[-1,-1,-1],"type":"VEC3"},{"bufferView":2,"componentType":5126,"count":36,"max":[0.3748779296875,0.8123779296875],"min":[0.1876220703125,0.6876220703125],"type":"VEC2"},{"bufferView":3,"componentType":5126,"count":36,"max":[4.300000190734863,24.299999237060547,2.299999952316284],"min":[-4.300000190734863,11.699999809265137,-2.299999952316284],"type":"VEC3"},{"bufferView":4,"componentType":5126,"count":36,"max":[1,1,1],"min":[-1,-1,-1],"type":"VEC3"},{"bufferView":5,"componentType":5126,"count":36,"max":[0.1873779296875,0.8748779296875],"min":[0.0001220703125,0.7501220703125],"type":"VEC2"},{"bufferView":6,"componentType":5126,"count":36,"max":[4,32,4],"min":[-4,24,-4],"type":"VEC3"},{"bufferView":7,"componentType":5126,"count":36,"max":[1,1,1],"min":[-1,-1,-1],"type":"VEC3"},{"bufferView":8,"componentType":5126,"count":36,"max":[0.2498779296875,0.9998779296875],"min":[0.0001220703125,0.8751220703125],"type":"VEC2"},{"bufferView":9,"componentType":5126,"count":36,"max":[4.300000190734863,32.29999923706055,4.300000190734863],"min":[-4.300000190734863,23.700000762939453,-4.300000190734863],"type":"VEC3"},{"bufferView":10,"componentType":5126,"count":36,"max":[1,1,1],"min":[-1,-1,-1],"type":"VEC3"},{"bufferView":11,"componentType":5126,"count":36,"max":[0.7186279296875,0.9998779296875],"min":[0.4688720703125,0.8751220703125],"type":"VEC2"},{"bufferView":12,"componentType":5126,"count":36,"max":[4.5,30,2.5],"min":[3.5,29,1.5],"type":"VEC3"},{"bufferView":13,"componentType":5126,"count":36,"max":[1,1,1],"min":[-1,-1,-1],"type":"VEC3"},{"bufferView":14,"componentType":5126,"count":36,"max":[0.0623779296875,0.9686279296875],"min":[0.0313720703125,0.9532470703125],"type":"VEC2"},{"bufferView":15,"componentType":5126,"count":36,"max":[4.5,32,3.5],"min":[3.5,30,2.5],"type":"VEC3"},{"bufferView":16,"componentType":5126,"count":36,"max":[1,1,1],"min":[-1,-1,-1],"type":"VEC3"},{"bufferView":17,"componentType":5126,"count":36,"max":[0.0311279296875,0.9686279296875],"min":[0.0001220703125,0.9454345703125],"type":"VEC2"},{"bufferView":18,"componentType":5126,"count":36,"max":[4.5,32.25,0.5],"min":[3.5,31.25,-0.5],"type":"VEC3"},{"bufferView":19,"componentType":5126,"count":36,"max":[1,1,1],"min":[-1,-1,-1],"type":"VEC3"},{"bufferView":20,"componentType":5126,"count":36,"max":[0.0623779296875,0.9686279296875],"min":[0.0313720703125,0.9532470703125],"type":"VEC2"},{"bufferView":21,"componentType":5126,"count":36,"max":[4.5,33,3.5],"min":[3.5,32,0.5],"type":"VEC3"},{"bufferView":22,"componentType":5126,"count":36,"max":[1,1,1],"min":[-1,-1,-1],"type":"VEC3"},{"bufferView":23,"componentType":5126,"count":36,"max":[0.0623779296875,0.9998779296875],"min":[0.0001220703125,0.9688720703125],"type":"VEC2"},{"bufferView":24,"componentType":5126,"count":36,"max":[-3.5,30,2.5],"min":[-4.5,29,1.5],"type":"VEC3"},{"bufferView":25,"componentType":5126,"count":36,"max":[1,1,1],"min":[-1,-1,-1],"type":"VEC3"},{"bufferView":26,"componentType":5126,"count":36,"max":[0.0623779296875,0.9686279296875],"min":[0.0313720703125,0.9532470703125],"type":"VEC2"},{"bufferView":27,"componentType":5126,"count":36,"max":[-3.5,32,3.5],"min":[-4.5,30,2.5],"type":"VEC3"},{"bufferView":28,"componentType":5126,"count":36,"max":[1,1,1],"min":[-1,-1,-1],"type":"VEC3"},{"bufferView":29,"componentType":5126,"count":36,"max":[0.0311279296875,0.9686279296875],"min":[0.0001220703125,0.9454345703125],"type":"VEC2"},{"bufferView":30,"componentType":5126,"count":36,"max":[-3.5,32.25,0.5],"min":[-4.5,31.25,-0.5],"type":"VEC3"},{"bufferView":31,"componentType":5126,"count":36,"max":[1,1,1],"min":[-1,-1,-1],"type":"VEC3"},{"bufferView":32,"componentType":5126,"count":36,"max":[0.0623779296875,0.9686279296875],"min":[0.0313720703125,0.9532470703125],"type":"VEC2"},{"bufferView":33,"componentType":5126,"count":36,"max":[-3.5,33,3.5],"min":[-4.5,32,0.5],"type":"VEC3"},{"bufferView":34,"componentType":5126,"count":36,"max":[1,1,1],"min":[-1,-1,-1],"type":"VEC3"},{"bufferView":35,"componentType":5126,"count":36,"max":[0.0623779296875,0.9998779296875],"min":[0.0001220703125,0.9688720703125],"type":"VEC2"},{"bufferView":36,"componentType":5126,"count":36,"max":[8,24,2],"min":[4,12,-2],"type":"VEC3"},{"bufferView":37,"componentType":5126,"count":36,"max":[1,1,1],"min":[-1,-1,-1],"type":"VEC3"},{"bufferView":38,"componentType":5126,"count":36,"max":[0.4686279296875,0.9061279296875],"min":[0.3438720703125,0.7813720703125],"type":"VEC2"},{"bufferView":39,"componentType":5126,"count":36,"max":[8.199999809265137,24.200000762939453,2.200000047683716],"min":[3.799999952316284,11.800000190734863,-2.200000047683716],"type":"VEC3"},{"bufferView":40,"componentType":5126,"count":36,"max":[1,1,1],"min":[-1,-1,-1],"type":"VEC3"},{"bufferView":41,"componentType":5126,"count":36,"max":[0.1248779296875,0.6248779296875],"min":[0.0001220703125,0.5001220703125],"type":"VEC2"},{"bufferView":42,"componentType":5126,"count":36,"max":[-4,24,2],"min":[-8,12,-2],"type":"VEC3"},{"bufferView":43,"componentType":5126,"count":36,"max":[1,1,1],"min":[-1,-1,-1],"type":"VEC3"},{"bufferView":44,"componentType":5126,"count":36,"max":[0.4686279296875,0.9061279296875],"min":[0.3438720703125,0.7813720703125],"type":"VEC2"},{"bufferView":45,"componentType":5126,"count":36,"max":[-3.799999952316284,24.200000762939453,2.200000047683716],"min":[-8.199999809265137,11.800000190734863,-2.200000047683716],"type":"VEC3"},{"bufferView":46,"componentType":5126,"count":36,"max":[1,1,1],"min":[-1,-1,-1],"type":"VEC3"},{"bufferView":47,"componentType":5126,"count":36,"max":[0.3748779296875,0.6873779296875],"min":[0.2501220703125,0.5626220703125],"type":"VEC2"},{"bufferView":48,"componentType":5126,"count":36,"max":[3.9000000953674316,12,2],"min":[-0.10000000149011612,0,-2],"type":"VEC3"},{"bufferView":49,"componentType":5126,"count":36,"max":[1,1,1],"min":[-1,-1,-1],"type":"VEC3"},{"bufferView":50,"componentType":5126,"count":36,"max":[0.3748779296875,0.9998779296875],"min":[0.2501220703125,0.8751220703125],"type":"VEC2"},{"bufferView":51,"componentType":5126,"count":36,"max":[4.099999904632568,12.199999809265137,2.200000047683716],"min":[-0.30000001192092896,-0.20000000298023224,-2.200000047683716],"type":"VEC3"},{"bufferView":52,"componentType":5126,"count":36,"max":[1,1,1],"min":[-1,-1,-1],"type":"VEC3"},{"bufferView":53,"componentType":5126,"count":36,"max":[0.2498779296875,0.6873779296875],"min":[0.1251220703125,0.5626220703125],"type":"VEC2"},{"bufferView":54,"componentType":5126,"count":36,"max":[0.10000000149011612,12,2],"min":[-3.9000000953674316,0,-2],"type":"VEC3"},{"bufferView":55,"componentType":5126,"count":36,"max":[1,1,1],"min":[-1,-1,-1],"type":"VEC3"},{"bufferView":56,"componentType":5126,"count":36,"max":[0.3748779296875,0.9998779296875],"min":[0.2501220703125,0.8751220703125],"type":"VEC2"},{"bufferView":57,"componentType":5126,"count":36,"max":[0.30000001192092896,12.199999809265137,2.200000047683716],"min":[-4.099999904632568,-0.20000000298023224,-2.200000047683716],"type":"VEC3"},{"bufferView":58,"componentType":5126,"count":36,"max":[1,1,1],"min":[-1,-1,-1],"type":"VEC3"},{"bufferView":59,"componentType":5126,"count":36,"max":[0.1248779296875,0.7498779296875],"min":[0.0001220703125,0.6251220703125],"type":"VEC2"},{"bufferView":60,"componentType":5126,"count":62,"max":[3.759999990463257],"min":[0],"type":"SCALAR"},{"bufferView":61,"componentType":5126,"count":62,"max":[0.04721010476350784,0.08509450405836105,0.0034313304349780083,0.9979522228240967],"min":[-0.0034313304349780083,0.06377952545881271,-0.04721010476350784,0.994133472442627],"type":"VEC4"},{"bufferView":62,"componentType":5126,"count":18,"max":[1.1200000047683716],"min":[0],"type":"SCALAR"},{"bufferView":63,"componentType":5126,"count":18,"max":[0.004748706240206957,-0.06222042441368103,0.04336012899875641,0.9980573654174805],"min":[-0.0001984147820621729,-0.10876325517892838,-0.0031827061902731657,0.9931102395057678],"type":"VEC4"},{"bufferView":64,"componentType":5126,"count":52,"max":[2.880000114440918],"min":[0],"type":"SCALAR"},{"bufferView":65,"componentType":5126,"count":52,"max":[0.06540312618017197,0,0,0.9978589415550232],"min":[0.06508822739124298,-0.006410309113562107,-0.09780241549015045,0.9930544495582581],"type":"VEC4"}],"materials":[{"pbrMetallicRoughness":{"metallicFactor":0,"roughnessFactor":1,"baseColorTexture":{"index":0}},"alphaMode":"MASK","alphaCutoff":0.05,"doubleSided":true,"name":"bobi_alt_ears1.png"}],"textures":[{"sampler":0,"source":0,"name":"bobi_alt_ears1.png"}],"samplers":[{"magFilter":9728,"minFilter":9728,"wrapS":33071,"wrapT":33071}],"images":[{"mimeType":"image/png","uri":"data:image/png;base64,"}],"meshes":[{"primitives":[{"mode":4,"attributes":{"POSITION":0,"NORMAL":1,"TEXCOORD_0":2},"material":0}]},{"primitives":[{"mode":4,"attributes":{"POSITION":3,"NORMAL":4,"TEXCOORD_0":5},"material":0}]},{"primitives":[{"mode":4,"attributes":{"POSITION":6,"NORMAL":7,"TEXCOORD_0":8},"material":0}]},{"primitives":[{"mode":4,"attributes":{"POSITION":9,"NORMAL":10,"TEXCOORD_0":11},"material":0}]},{"primitives":[{"mode":4,"attributes":{"POSITION":12,"NORMAL":13,"TEXCOORD_0":14},"material":0}]},{"primitives":[{"mode":4,"attributes":{"POSITION":15,"NORMAL":16,"TEXCOORD_0":17},"material":0}]},{"primitives":[{"mode":4,"attributes":{"POSITION":18,"NORMAL":19,"TEXCOORD_0":20},"material":0}]},{"primitives":[{"mode":4,"attributes":{"POSITION":21,"NORMAL":22,"TEXCOORD_0":23},"material":0}]},{"primitives":[{"mode":4,"attributes":{"POSITION":24,"NORMAL":25,"TEXCOORD_0":26},"material":0}]},{"primitives":[{"mode":4,"attributes":{"POSITION":27,"NORMAL":28,"TEXCOORD_0":29},"material":0}]},{"primitives":[{"mode":4,"attributes":{"POSITION":30,"NORMAL":31,"TEXCOORD_0":32},"material":0}]},{"primitives":[{"mode":4,"attributes":{"POSITION":33,"NORMAL":34,"TEXCOORD_0":35},"material":0}]},{"primitives":[{"mode":4,"attributes":{"POSITION":36,"NORMAL":37,"TEXCOORD_0":38},"material":0}]},{"primitives":[{"mode":4,"attributes":{"POSITION":39,"NORMAL":40,"TEXCOORD_0":41},"material":0}]},{"primitives":[{"mode":4,"attributes":{"POSITION":42,"NORMAL":43,"TEXCOORD_0":44},"material":0}]},{"primitives":[{"mode":4,"attributes":{"POSITION":45,"NORMAL":46,"TEXCOORD_0":47},"material":0}]},{"primitives":[{"mode":4,"attributes":{"POSITION":48,"NORMAL":49,"TEXCOORD_0":50},"material":0}]},{"primitives":[{"mode":4,"attributes":{"POSITION":51,"NORMAL":52,"TEXCOORD_0":53},"material":0}]},{"primitives":[{"mode":4,"attributes":{"POSITION":54,"NORMAL":55,"TEXCOORD_0":56},"material":0}]},{"primitives":[{"mode":4,"attributes":{"POSITION":57,"NORMAL":58,"TEXCOORD_0":59},"material":0}]}],"animations":[{"name":"animation.geometry.humanoid.wiggle","samplers":[{"input":60,"output":61,"interpolation":"LINEAR"},{"input":62,"output":63,"interpolation":"LINEAR"},{"input":64,"output":65,"interpolation":"LINEAR"}],"channels":[{"sampler":0,"target":{"node":8,"path":"rotation"}},{"sampler":1,"target":{"node":13,"path":"rotation"}},{"sampler":2,"target":{"node":14,"path":"rotation"}}]}]}